<?xml version="1.0" encoding="UTF-8"?>
<svg id="Layer_2" data-name="Layer 2" xmlns="http://www.w3.org/2000/svg" viewBox="0 0 118.92 36.02">
  <defs>
    <style>
      .cls-1 {
        stroke-linecap: square;
      }

      .cls-1, .cls-2, .cls-3, .cls-4 {
        fill: none;
        stroke: #c6a94e;
        stroke-width: .75px;
      }

      .cls-1, .cls-4 {
        stroke-miterlimit: 10;
      }

      .cls-2 {
        stroke-linejoin: bevel;
      }

      .cls-2, .cls-4 {
        stroke-linecap: round;
      }

      .cls-5 {
        fill: #f4f4f4;
      }

      .cls-6 {
        fill: #c6a94e;
      }

      .cls-3 {
        stroke-linejoin: round;
      }
    </style>
  </defs>
  <g id="Layer_1-2" data-name="Layer 1">
    <g>
      <path class="cls-3" d="m89.85,6.27s-30.01-13.33-42.86.1c-1.14,1.19-3.67.34-6.51.59-7.77.68-12.75,4.64-12.75,4.64l2.16,5.33h6.49c0-2.77,2.25-5.02,5.02-5.02s5.02,2.25,5.02,5.02h35.21c0-2.77,2.25-5.02,5.02-5.02s5.02,2.25,5.02,5.02h7.45V4.61l-9.29,1.66Z"/>
      <path class="cls-4" d="m50.92,15.61c0-19.6,23.52-11.06,23.52-11.06,0,0-6.72,3.5-18.92,2.94"/>
      <path class="cls-2" d="m52.88,15.61h16.66s6.16-3.48,6.16-6.96"/>
      <path class="cls-6" d="m51.26,12.59l16.33.5-16.33.5c-.67.02-.68-1.02,0-1h0Z"/>
      <path class="cls-6" d="m51.76,10.65l15.82.5-15.82.5c-.67.02-.68-1.02,0-1h0Z"/>
      <path class="cls-6" d="m52.28,8.72l15.31.5-15.31.5c-.67.02-.68-1.02,0-1h0Z"/>
      <polyline class="cls-4" points="27.74 11.6 31.72 11.6 33.93 16.93"/>
      <path class="cls-6" d="m32.43,13.63l-3.56-.29,3.56-.29c.42-.03.42.62,0,.59h0Z"/>
      <path class="cls-6" d="m32.87,14.56l-3.56-.29,3.56-.29c.42-.03.42.62,0,.59h0Z"/>
      <path class="cls-6" d="m33,15.49l-3.13-.29,3.13-.29c.42-.03.42.62,0,.59h0Z"/>
      <path class="cls-6" d="m75.32,9.93l1.52.11,2.7.19-4.22.29c-.41.03-.41-.62,0-.59h0Z"/>
      <polygon class="cls-6" points="74.44 11.44 78 11.73 74.44 12.02 74.15 12.05 74.15 11.41 74.44 11.44 74.44 11.44"/>
      <path class="cls-6" d="m72.74,13.04l1.52.11,2.71.19-4.22.29c-.41.03-.41-.62,0-.59h0Z"/>
      <path class="cls-1" d="m31.72,11.6c3.15-1.12,6.14-2.37,2.01-2.95"/>
    </g>
    <g>
      <path class="cls-5" d="m0,35.87v-8.4h5.2v.83H1.01v2.93h3.83v.82H1.01v3h4.19v.83H0Z"/>
      <path class="cls-5" d="m10.31,35.87v-8.4h1.01v7.6h3.91v.8h-4.92Z"/>
      <path class="cls-5" d="m20.15,35.87v-8.4h1.01v8.4h-1.01Z"/>
      <path class="cls-5" d="m28.44,35.87v-7.57h-2.51v-.83h6.02v.83h-2.51v7.57h-1.01Z"/>
      <path class="cls-5" d="m36.73,35.87v-8.4h5.2v.83h-4.19v2.93h3.83v.82h-3.83v3h4.19v.83h-5.2Z"/>
      <path class="cls-5" d="m53.76,35.87v-8.4h1.18l3.02,5.86,3-5.86h1.19v8.4h-1.01v-6.6l-2.81,5.4h-.76l-2.81-5.39v6.59h-1.01Z"/>
      <path class="cls-5" d="m71.28,36.02c-.82,0-1.55-.18-2.17-.55-.62-.36-1.1-.87-1.45-1.53-.35-.66-.52-1.41-.52-2.27s.17-1.61.52-2.26c.35-.65.83-1.16,1.45-1.53.62-.37,1.34-.55,2.17-.55s1.56.18,2.18.55,1.1.88,1.45,1.53c.34.65.52,1.41.52,2.26s-.17,1.61-.52,2.27c-.34.66-.83,1.17-1.45,1.53-.62.36-1.35.55-2.18.55Zm0-.89c.62,0,1.16-.14,1.63-.41.47-.28.83-.67,1.09-1.19.26-.52.39-1.13.39-1.85s-.13-1.34-.39-1.85-.62-.91-1.09-1.18c-.47-.28-1.01-.41-1.63-.41s-1.16.14-1.63.41c-.47.28-.83.67-1.09,1.18-.26.51-.39,1.13-.39,1.85s.13,1.34.39,1.85c.26.52.62.91,1.09,1.19.47.28,1.01.41,1.63.41Z"/>
      <path class="cls-5" d="m81.95,35.87v-7.57h-2.51v-.83h6.02v.83h-2.51v7.57h-1.01Z"/>
      <path class="cls-5" d="m93.62,36.02c-.82,0-1.55-.18-2.17-.55-.62-.36-1.1-.87-1.45-1.53-.35-.66-.52-1.41-.52-2.27s.17-1.61.52-2.26c.35-.65.83-1.16,1.45-1.53s1.34-.55,2.17-.55,1.56.18,2.18.55,1.1.88,1.45,1.53.52,1.41.52,2.26-.17,1.61-.52,2.27c-.34.66-.83,1.17-1.45,1.53-.62.36-1.35.55-2.18.55Zm0-.89c.62,0,1.16-.14,1.63-.41.47-.28.83-.67,1.09-1.19.26-.52.39-1.13.39-1.85s-.13-1.34-.39-1.85-.62-.91-1.09-1.18c-.47-.28-1.01-.41-1.63-.41s-1.16.14-1.63.41c-.47.28-.83.67-1.09,1.18s-.39,1.13-.39,1.85.13,1.34.39,1.85c.26.52.62.91,1.09,1.19.47.28,1.01.41,1.63.41Z"/>
      <path class="cls-5" d="m102.75,35.87v-8.4h2.71c.66,0,1.19.11,1.61.32s.72.51.92.89c.2.38.3.79.3,1.25,0,.53-.14,1-.43,1.43s-.73.72-1.33.9l1.84,3.61h-1.19l-1.7-3.47h-1.73v3.47h-1.01Zm1.01-4.26h1.63c.65,0,1.12-.16,1.42-.47.3-.31.44-.71.44-1.2s-.15-.89-.44-1.18c-.29-.29-.77-.44-1.43-.44h-1.62v3.29Z"/>
      <path class="cls-5" d="m116.09,36.02c-.62,0-1.15-.11-1.61-.34-.46-.22-.81-.54-1.06-.94s-.37-.86-.37-1.39h1.06c0,.33.08.63.23.91.15.28.37.5.67.66s.65.25,1.09.25c.57,0,1.01-.14,1.32-.41.31-.27.47-.61.47-1.02,0-.34-.07-.61-.22-.81-.14-.2-.34-.37-.58-.5s-.52-.24-.84-.34c-.32-.1-.65-.2-.99-.32-.65-.22-1.13-.5-1.44-.83-.31-.33-.47-.77-.47-1.3,0-.45.1-.85.31-1.19.22-.35.52-.62.92-.82.4-.2.87-.29,1.41-.29s1,.1,1.4.3c.4.2.7.48.92.83.22.35.33.75.34,1.2h-1.06c0-.23-.06-.46-.18-.69-.12-.23-.3-.41-.55-.56-.24-.14-.55-.22-.92-.22-.46,0-.83.11-1.12.35s-.44.57-.44,1c0,.36.1.64.31.83.2.19.49.35.86.47.37.12.79.27,1.27.43.4.14.76.31,1.08.5.32.19.57.44.75.74.18.3.27.69.27,1.16,0,.4-.1.78-.31,1.13-.21.36-.52.65-.94.87-.42.22-.95.34-1.58.34Z"/>
    </g>
  </g>
</svg>